<svg width="24" height="24" viewBox="0 0 24 24" fill="none" xmlns="http://www.w3.org/2000/svg">
<g clip-path="url(#clip0_15_4)">
<path fill-rule="evenodd" clip-rule="evenodd" d="M15 2C15.8125 1.99995 16.6058 2.24734 17.2742 2.70924C17.9427 3.17114 18.4546 3.82565 18.7419 4.58567C19.0292 5.34569 19.0782 6.17518 18.8824 6.96375C18.6867 7.75232 18.2554 8.46258 17.646 9C18.3914 9.65582 18.8662 10.5654 18.9782 11.5518C19.0902 12.5383 18.8313 13.5311 18.2519 14.3373C17.6726 15.1435 16.8141 15.7055 15.8434 15.9139C14.8727 16.1223 13.8593 15.9623 13 15.465V18C13 18.6684 12.8324 19.3261 12.5127 19.9131C12.193 20.5 11.7313 20.9975 11.1698 21.3601C10.6083 21.7227 9.96494 21.9388 9.29842 21.9886C8.6319 22.0385 7.9635 21.9205 7.35431 21.6456C6.74511 21.3706 6.21453 20.9473 5.81105 20.4144C5.40757 19.8816 5.14405 19.2561 5.04456 18.5952C4.94508 17.9342 5.0128 17.2589 5.24154 16.6309C5.47028 16.0028 5.85275 15.4421 6.35401 15C5.92792 14.625 5.58674 14.1635 5.35325 13.6461C5.11976 13.1288 4.99933 12.5676 5.00001 12C4.99933 11.4324 5.11976 10.8712 5.35325 10.3539C5.58674 9.83654 5.92792 9.37498 6.35401 9C5.74463 8.46258 5.31336 7.75232 5.11759 6.96375C4.92183 6.17518 4.97086 5.34569 5.25814 4.58567C5.54543 3.82565 6.05736 3.17114 6.7258 2.70924C7.39424 2.24734 8.1875 1.99995 9.00001 2H15ZM11 16H9.00001C8.60444 16 8.21776 16.1173 7.88887 16.3371C7.55997 16.5568 7.30362 16.8692 7.15225 17.2346C7.00087 17.6001 6.96126 18.0022 7.03843 18.3902C7.11561 18.7781 7.30609 19.1345 7.58579 19.4142C7.8655 19.6939 8.22186 19.8844 8.60982 19.9616C8.99779 20.0387 9.39992 19.9991 9.76537 19.8478C10.1308 19.6964 10.4432 19.44 10.6629 19.1111C10.8827 18.7822 11 18.3956 11 18V16ZM11 10H9.00001C8.46957 10 7.96086 10.2107 7.58579 10.5858C7.21072 10.9609 7.00001 11.4696 7.00001 12C7.00001 12.5304 7.21072 13.0391 7.58579 13.4142C7.96086 13.7893 8.46957 14 9.00001 14H11V10ZM15 10C14.4696 10 13.9609 10.2107 13.5858 10.5858C13.2107 10.9609 13 11.4696 13 12C13 12.5304 13.2107 13.0391 13.5858 13.4142C13.9609 13.7893 14.4696 14 15 14C15.5304 14 16.0391 13.7893 16.4142 13.4142C16.7893 13.0391 17 12.5304 17 12C17 11.4696 16.7893 10.9609 16.4142 10.5858C16.0391 10.2107 15.5304 10 15 10ZM15 4H13V8H15C15.519 8.00232 16.0186 7.80281 16.3932 7.44362C16.7678 7.08443 16.9881 6.59368 17.0075 6.07506C17.027 5.55644 16.8441 5.05055 16.4975 4.66428C16.1509 4.27801 15.6677 4.0416 15.15 4.005L15 4ZM11 4H9.00001C8.46957 4 7.96086 4.21071 7.58579 4.58579C7.21072 4.96086 7.00001 5.46957 7.00001 6C7.00001 6.53043 7.21072 7.03914 7.58579 7.41421C7.96086 7.78929 8.46957 8 9.00001 8H11V4Z" fill="white"/>
</g>
<defs>
<clipPath id="clip0_15_4">
<rect width="24" height="24" fill="white"/>
</clipPath>
</defs>
</svg>
